# xmcd CD database file
#
# Track frame offsets:
#	150
#	35847
#	65965
#	94420
#	122639
#	154965
#	181699
#
# Disc length: 2864 seconds
#
# Revision: 0
# Processed by: cddbd v1.5.2PL0 Copyright (c) Steve Scherf et al.
# Submitted via: CDex 1.90
#
DISCID=630b2e07
DTITLE=Yamashita Yosuke - Tripple Cats
DYEAR=2008
DGENRE=Jazz
TTITLE0=Diverse Cosmos
TTITLE1=Tripple Cats
TTITLE2=Memory Is a Funny THing
TTITLE3=Driving Fuga
TTITLE4=Illusional Carriage
TTITLE5=The 20th Theme
TTITLE6="In F" Fragments
EXTD=YEAR: 2008
EXTT0=
EXTT1=
EXTT2=
EXTT3=
EXTT4=
EXTT5=
EXTT6=
PLAYORDER=
